<svg width="131" height="399" viewBox="0 0 131 399" fill="none" xmlns="http://www.w3.org/2000/svg">
<g clip-path="url(#clip0_2546_2736)">
<path d="M-681.946 422L-660.873 400.011L-873.851 196L-660.873 -8.01081L-681.946 -30L-917.831 196L-681.946 422ZM-786.908 196L-551.024 -30L-529.95 -8.01081L-742.928 196L-529.95 400.011L-551.024 422L-786.908 196Z" fill="url(#paint0_linear_2546_2736)" fill-opacity="0.1"/>
<path d="M-419.816 422L-398.742 400.011L-611.721 196L-398.742 -8.01081L-419.816 -30L-655.701 196L-419.816 422ZM-524.778 196L-288.894 -30L-267.82 -8.01081L-480.798 196L-267.82 400.011L-288.894 422L-524.778 196Z" fill="url(#paint1_linear_2546_2736)" fill-opacity="0.1"/>
<path d="M-157.686 422L-136.612 400.011L-349.59 196L-136.612 -8.01081L-157.686 -30L-393.571 196L-157.686 422ZM-262.648 196L-26.7634 -30L-5.68951 -8.01081L-218.668 196L-5.68951 400.011L-26.7634 422L-262.648 196Z" fill="url(#paint2_linear_2546_2736)" fill-opacity="0.1"/>
<path d="M104.444 422L125.518 400.011L-87.4604 196L125.518 -8.01081L104.444 -30L-131.441 196L104.444 422ZM-0.518066 196L235.366 -30L256.44 -8.01081L43.4622 196L256.44 400.011L235.366 422L-0.518066 196Z" fill="url(#paint3_linear_2546_2736)" fill-opacity="0.1"/>
<path d="M366.575 422L387.648 400.011L174.67 196L387.648 -8.01081L366.575 -30L130.69 196L366.575 422ZM261.613 196L497.497 -30L518.571 -8.01081L305.593 196L518.571 400.011L497.497 422L261.613 196Z" fill="url(#paint4_linear_2546_2736)" fill-opacity="0.1"/>
<path d="M628.705 422L649.779 400.011L436.8 196L649.779 -8.01081L628.705 -30L392.82 196L628.705 422ZM523.743 196L759.627 -30L780.701 -8.01081L567.723 196L780.701 400.011L759.627 422L523.743 196Z" fill="url(#paint5_linear_2546_2736)" fill-opacity="0.1"/>
<path d="M890.835 422L911.909 400.011L698.931 196L911.909 -8.01081L890.835 -30L654.95 196L890.835 422ZM785.873 196L1021.76 -30L1042.83 -8.01081L829.853 196L1042.83 400.011L1021.76 422L785.873 196Z" fill="url(#paint6_linear_2546_2736)" fill-opacity="0.1"/>
</g>
<defs>
<linearGradient id="paint0_linear_2546_2736" x1="62.5001" y1="1.87632" x2="62.5001" y2="403.817" gradientUnits="userSpaceOnUse">
<stop offset="0.480769" stop-color="#2FFFA3"/>
<stop offset="1" stop-color="#2FFFA3" stop-opacity="0"/>
</linearGradient>
<linearGradient id="paint1_linear_2546_2736" x1="62.5001" y1="1.87632" x2="62.5001" y2="403.817" gradientUnits="userSpaceOnUse">
<stop offset="0.480769" stop-color="#2FFFA3"/>
<stop offset="1" stop-color="#2FFFA3" stop-opacity="0"/>
</linearGradient>
<linearGradient id="paint2_linear_2546_2736" x1="62.5001" y1="1.87632" x2="62.5001" y2="403.817" gradientUnits="userSpaceOnUse">
<stop offset="0.480769" stop-color="#2FFFA3"/>
<stop offset="1" stop-color="#2FFFA3" stop-opacity="0"/>
</linearGradient>
<linearGradient id="paint3_linear_2546_2736" x1="62.5001" y1="1.87632" x2="62.5001" y2="403.817" gradientUnits="userSpaceOnUse">
<stop offset="0.480769" stop-color="#2FFFA3"/>
<stop offset="1" stop-color="#2FFFA3" stop-opacity="0"/>
</linearGradient>
<linearGradient id="paint4_linear_2546_2736" x1="62.5001" y1="1.87632" x2="62.5001" y2="403.817" gradientUnits="userSpaceOnUse">
<stop offset="0.480769" stop-color="#2FFFA3"/>
<stop offset="1" stop-color="#2FFFA3" stop-opacity="0"/>
</linearGradient>
<linearGradient id="paint5_linear_2546_2736" x1="62.5001" y1="1.87632" x2="62.5001" y2="403.817" gradientUnits="userSpaceOnUse">
<stop offset="0.480769" stop-color="#2FFFA3"/>
<stop offset="1" stop-color="#2FFFA3" stop-opacity="0"/>
</linearGradient>
<linearGradient id="paint6_linear_2546_2736" x1="62.5001" y1="1.87632" x2="62.5001" y2="403.817" gradientUnits="userSpaceOnUse">
<stop offset="0.480769" stop-color="#2FFFA3"/>
<stop offset="1" stop-color="#2FFFA3" stop-opacity="0"/>
</linearGradient>
<clipPath id="clip0_2546_2736">
<rect width="131" height="399" fill="white"/>
</clipPath>
</defs>
</svg>
