<svg width="105" height="14" viewBox="0 0 105 14" fill="none" xmlns="http://www.w3.org/2000/svg">
<path d="M3.13992 0.0680819H10.4359L6.96452 10.191H16.4431L15.1336 13.9326H0.5L4.34546 2.74953L3.13992 0.0680819Z" fill="white"/>
<path d="M32.8226 3.80955H25.6097L23.4272 10.1909H30.6401L32.8226 3.80955ZM35.317 11.5213C35.1922 11.8956 34.9912 12.2317 34.7142 12.5295C34.4368 12.8276 34.1114 13.0804 33.7372 13.2882C33.3631 13.4961 32.9542 13.6556 32.5108 13.7662C32.0672 13.8773 31.617 13.9326 31.1597 13.9326H20.3092C19.8656 13.9326 19.4602 13.8773 19.0932 13.7662C18.7258 13.6556 18.4244 13.4961 18.189 13.2882C17.9531 13.0804 17.794 12.8276 17.7109 12.5295C17.6277 12.2317 17.6553 11.8956 17.794 11.5213L20.9119 2.47925C21.0367 2.10509 21.2374 1.76926 21.5148 1.47102C21.7918 1.17322 22.1176 0.920311 22.4917 0.71231C22.8659 0.504521 23.2745 0.345345 23.7181 0.234249C24.1615 0.123577 24.612 0.0680819 25.0693 0.0680819H35.9198C36.3771 0.0680819 36.7893 0.123577 37.1566 0.234249C37.5235 0.345345 37.825 0.504521 38.0608 0.71231C38.2962 0.920311 38.4486 1.17322 38.5181 1.47102C38.5873 1.76926 38.5597 2.10509 38.435 2.47925L35.317 11.5213Z" fill="white"/>
<path d="M39.6823 13.9326C39.2386 13.9326 38.8332 13.8773 38.4663 13.7662C38.099 13.6556 37.7975 13.4961 37.562 13.2883C37.3262 13.0804 37.1671 12.8277 37.084 12.5295C37.0007 12.2317 37.0284 11.8956 37.1671 11.5214L40.2851 2.47925C40.4097 2.10509 40.6105 1.76926 40.8878 1.47113C41.165 1.17322 41.4906 0.920311 41.8648 0.71231C42.239 0.504521 42.6475 0.345345 43.0912 0.234249C43.5345 0.123577 43.985 0.0680819 44.4423 0.0680819H56.7895L56.2698 1.5854C56.1867 1.82126 56.0791 2.06707 55.9477 2.32336C55.8158 2.57987 55.6598 2.819 55.48 3.04045C55.2996 3.26233 55.0987 3.44586 54.8772 3.59138C54.6553 3.73679 54.4198 3.80955 54.1705 3.80955H44.9828L42.8003 10.191H53.3182L52.0295 13.9326H39.6823Z" fill="white"/>
<path d="M65.2418 11.8901L66.1836 13.9326H71.8587L69.3426 8.46657L65.2418 11.8901ZM76.6394 0.0691404H70.737L61.051 8.03003L63.7946 0.0691404H58.6196L53.8574 13.9326H59.6991L76.6394 0.0691404Z" fill="white"/>
<path d="M74.7549 13.9326L79.515 0.0680819H84.6908L79.9307 13.9326H74.7549Z" fill="#2FFFA3"/>
<path d="M91.0341 0.0680819H86.5403L81.7803 13.9326H86.9353L89.5128 6.47024H89.6792L92.8874 11.7293L91.0341 0.0680819Z" fill="#2FFFA3"/>
<path d="M99.3446 0.0680819L96.7672 7.55122H96.6008L93.3711 2.26606L95.2252 13.9326H99.7397L104.5 0.0680819H99.3446Z" fill="#2FFFA3"/>
</svg>
